<svg width="20" height="20" viewBox="0 0 20 20" fill="none" xmlns="http://www.w3.org/2000/svg">
<path d="M17.0106 2.90005C16.0937 1.97683 15.0023 1.24502 13.7999 0.747162C12.5974 0.249301 11.3078 -0.00464808 10.0063 6.44027e-05C8.26629 0.0017644 6.5572 0.460312 5.05029 1.32978C3.54339 2.19926 2.29153 3.44914 1.42006 4.95425C0.548593 6.45936 0.0881301 8.16692 0.084753 9.90579C0.0813884 11.6448 0.535247 13.354 1.40088 14.8625L0 20L5.25328 18.625C6.70388 19.4315 8.33383 19.8614 9.99375 19.875C12.6325 19.8751 15.1645 18.8335 17.0384 16.977C18.9124 15.1206 19.9769 12.5995 20 9.96254C19.9912 8.64667 19.7226 7.34547 19.2096 6.13355C18.6967 4.92162 17.9493 3.8228 17.0106 2.90005ZM10.0063 18.1625C8.52746 18.1635 7.07569 17.7663 5.80363 17.0125L5.50344 16.825L2.38899 17.65L3.21451 14.6125L3.01438 14.3C1.95028 12.5834 1.55315 10.5363 1.89821 8.54654C2.24328 6.55686 3.30658 4.76275 4.88668 3.50409C6.46679 2.24542 8.45391 1.60963 10.4717 1.71717C12.4894 1.8247 14.3977 2.66808 15.8349 4.08755C17.4059 5.62278 18.3052 7.71692 18.3365 9.91254C18.3167 12.1074 17.4303 14.2056 15.8702 15.7508C14.3102 17.2958 12.2026 18.1626 10.0063 18.1625ZM14.5216 11.9875C14.2714 11.8625 13.0582 11.2625 12.833 11.1875C12.6079 11.1125 12.4328 11.0625 12.2702 11.3125C12.0255 11.6477 11.7624 11.9689 11.4822 12.275C11.3446 12.45 11.1945 12.4625 10.9443 12.275C9.51807 11.7118 8.32983 10.6743 7.57974 9.33754C7.31707 8.90004 7.82989 8.92504 8.30519 7.98755C8.34034 7.91992 8.3586 7.84492 8.3586 7.7688C8.3586 7.69267 8.34034 7.61767 8.30519 7.55005C8.30519 7.42504 7.74234 6.20004 7.54221 5.71254C7.34209 5.22504 7.14196 5.30004 6.97936 5.28754H6.49156C6.36517 5.28948 6.24065 5.31837 6.12633 5.37226C6.01201 5.42614 5.91052 5.50381 5.82864 5.60004C5.54799 5.87277 5.32909 6.20244 5.18669 6.56684C5.04429 6.93124 4.9817 7.32191 5.00313 7.71255C5.08155 8.64767 5.43393 9.53892 6.01626 10.275C7.08218 11.8698 8.54296 13.1617 10.2564 14.025C11.1551 14.5493 12.1995 14.7685 13.2333 14.65C13.5775 14.5818 13.9036 14.4419 14.1901 14.2394C14.4768 14.037 14.7176 13.7765 14.8968 13.475C15.0629 13.107 15.1152 12.6979 15.0469 12.3C14.9343 12.175 14.7717 12.1125 14.5216 11.9875Z" fill="black" fill-opacity="0.5"/>
</svg>
