<svg width="27" height="27" viewBox="0 0 27 27" fill="none" xmlns="http://www.w3.org/2000/svg">
<path d="M26 11C25.9536 9.36116 25.7976 8.31631 25.2722 7.42467C24.5248 6.15654 23.179 5.45083 20.4873 4.0394L17.9854 2.72746C15.7892 1.57582 14.6911 1 13.5098 1C12.3285 1 11.2304 1.57582 9.03413 2.72746L6.53218 4.0394C3.8405 5.45083 2.49465 6.15654 1.74733 7.42467C1 8.69281 1 10.2708 1 13.4269V13.5731C1 16.7291 1 18.3072 1.74733 19.5754C2.49465 20.8435 3.8405 21.5491 6.53218 22.9606L9.03413 24.2725C11.2304 25.4241 12.3285 26 13.5098 26C14.6911 26 15.7892 25.4241 17.9854 24.2725L20.4873 22.9606C23.179 21.5491 24.5248 20.8435 25.2722 19.5754C25.7976 18.6836 25.9536 17.6389 26 16M24.7685 7.875L13.5098 13.5M13.5098 13.5L2.25098 7.875M13.5098 13.5V25.375" stroke="black" stroke-opacity="0.5" stroke-width="2" stroke-linecap="round"/>
</svg>
