<svg width="14" height="14" viewBox="0 0 14 14" fill="none" xmlns="http://www.w3.org/2000/svg">
<path d="M14 12.4536L10.4065 8.85946C11.0387 7.92264 11.376 6.81801 11.375 5.68782C11.375 2.55182 8.82445 0 5.68782 0C2.55182 0 0 2.55182 0 5.68782C0 8.82445 2.55182 11.3756 5.68782 11.3756C6.81806 11.377 7.92278 11.0396 8.85946 10.4071L12.4524 14L14 12.4536ZM5.68782 9.625C4.64375 9.62399 3.64274 9.20879 2.90448 8.47052C2.16621 7.73226 1.75101 6.73125 1.75 5.68718C1.75118 4.64317 2.16643 3.64226 2.90466 2.90403C3.64289 2.1658 4.64381 1.75054 5.68782 1.74936C6.73183 1.75054 7.73275 2.1658 8.47097 2.90403C9.2092 3.64226 9.62446 4.64317 9.62564 5.68718C9.62446 6.73119 9.2092 7.73211 8.47097 8.47034C7.73275 9.20857 6.73183 9.62382 5.68782 9.625Z" fill="black" fill-opacity="0.3"/>
</svg>
