<svg width="10" height="10" viewBox="0 0 10 10" fill="none" xmlns="http://www.w3.org/2000/svg">
<path d="M1.8775 9.1415L1 3H9L8.1225 9.1415C8.08844 9.37979 7.96957 9.5978 7.78771 9.7555C7.60585 9.9132 7.37321 10 7.1325 10H2.8675C2.62679 10 2.39415 9.9132 2.21229 9.7555C2.03043 9.5978 1.91156 9.37979 1.8775 9.1415ZM9.5 1H7V0.5C7 0.367392 6.94732 0.240215 6.85355 0.146447C6.75979 0.0526784 6.63261 0 6.5 0H3.5C3.36739 0 3.24021 0.0526784 3.14645 0.146447C3.05268 0.240215 3 0.367392 3 0.5V1H0.5C0.367392 1 0.240215 1.05268 0.146447 1.14645C0.0526784 1.24021 0 1.36739 0 1.5C0 1.63261 0.0526784 1.75979 0.146447 1.85355C0.240215 1.94732 0.367392 2 0.5 2H9.5C9.63261 2 9.75979 1.94732 9.85355 1.85355C9.94732 1.75979 10 1.63261 10 1.5C10 1.36739 9.94732 1.24021 9.85355 1.14645C9.75979 1.05268 9.63261 1 9.5 1Z" fill="black"/>
</svg>
