<svg width="213" height="52" viewBox="0 0 213 52" fill="none" xmlns="http://www.w3.org/2000/svg">
<g filter="url(#filter0_d_236_12)">
<path d="M7.06435 12.811H16.3854C18.4949 12.811 20.5553 14.25 22.5667 17.1281C22.9591 17.7005 23.1554 18.3219 23.1554 18.9923V20.2678C23.1554 20.3659 23.0573 20.4641 22.861 20.5622H15.5023V51.2725C15.5023 51.3706 15.4042 51.4687 15.208 51.5668H8.04551C7.9474 51.5668 7.84928 51.4687 7.75116 51.2725V20.5622H0.588696C0.196232 20.5622 0 20.3659 0 19.9735V19.7772C0 17.4061 1.53715 15.2803 4.61145 13.3997C5.44544 13.0072 6.26307 12.811 7.06435 12.811Z" fill="black"/>
<path d="M34.0953 12.811H34.4878C34.5859 12.811 34.684 12.9091 34.7821 13.1054V28.4114H42.6314V13.1054C42.6314 13.0072 42.7295 12.9091 42.9257 12.811H43.122C45.6893 12.811 47.9787 14.5771 49.9901 18.1093C50.1209 18.5671 50.1863 18.9596 50.1863 19.2867V45.2874C50.1863 46.8082 48.7146 48.6724 45.7711 50.88C44.9208 51.3379 44.1685 51.5668 43.5144 51.5668H42.9257C42.8276 51.5668 42.7295 51.4687 42.6314 51.2725V36.0645H34.7821V51.2725C34.7821 51.3706 34.684 51.4687 34.4878 51.5668H33.7028C31.855 51.5668 29.9254 50.1278 27.914 47.2497C27.3253 46.3176 27.031 45.3365 27.031 44.3062V20.1697C27.031 17.1935 28.8625 14.806 32.5255 13.0072C33.2777 12.8764 33.801 12.811 34.0953 12.811Z" fill="black"/>
<path d="M60.5376 12.811H69.9567C71.4775 12.811 73.3417 13.694 75.5493 15.4601C76.6613 16.7356 77.2173 18.5344 77.2173 20.8565V23.8981C77.2173 27.7083 75.4839 30.2593 72.0171 31.5512C71.1668 31.9273 70.7416 32.1562 70.7416 32.238V32.3361C73.0146 32.3361 75.1078 34.233 77.0211 38.0268C77.1519 38.6319 77.2173 38.9916 77.2173 39.1061L77.1192 42.2458C77.25 43.4232 77.3154 44.3716 77.3154 45.0912C77.3154 46.89 75.9745 48.7542 73.2926 50.6838C72.2461 51.2725 71.3303 51.5668 70.5454 51.5668H69.8586C69.7605 51.5668 69.6624 51.4687 69.5642 51.2725V36.0645H61.715V51.2725C61.715 51.3706 61.6168 51.4687 61.4206 51.5668H60.5376C58.5916 51.5668 56.662 50.1605 54.7487 47.3478C54.2254 46.5956 53.9638 45.7126 53.9638 44.6987V19.7772C53.9638 17.1281 55.6318 14.9041 58.9677 13.1054C59.6709 12.9091 60.1942 12.811 60.5376 12.811ZM61.9112 20.6603V28.2152H69.368V20.6603H61.9112Z" fill="black"/>
<path d="M81.3872 12.811H103.954C104.052 12.811 104.15 12.9091 104.248 13.1054V20.1697C104.248 20.2678 104.15 20.3659 103.954 20.4641H96.5952V43.9138H103.954C104.052 43.9138 104.15 44.0119 104.248 44.2081V51.2725C104.248 51.3706 104.15 51.4687 103.954 51.5668H81.3872C81.2891 51.5668 81.191 51.4687 81.0929 51.2725V44.2081C81.0929 44.11 81.191 44.0119 81.3872 43.9138H88.9421V20.4641H81.3872C81.2891 20.4641 81.191 20.3659 81.0929 20.1697V13.1054C81.0929 13.0072 81.191 12.9091 81.3872 12.811Z" fill="black"/>
<path d="M115.188 12.811H130.985C131.083 12.811 131.181 12.9091 131.279 13.1054V20.1697C131.279 20.2678 131.181 20.3659 130.985 20.4641H115.875V28.3133H123.332C123.43 28.3133 123.528 28.4114 123.626 28.6077V35.7701C123.626 35.8683 123.528 35.9664 123.332 36.0645H115.875V51.2725C115.875 51.3706 115.777 51.4687 115.581 51.5668H108.418C108.32 51.5668 108.222 51.4687 108.124 51.2725V20.9546C108.124 17.0627 110.021 14.4136 113.815 13.0072C114.305 12.8764 114.763 12.811 115.188 12.811Z" fill="black"/>
<path d="M141.974 12.811H151.589C153.879 12.811 156.004 14.5117 157.967 17.913C158.163 18.3382 158.261 18.7961 158.261 19.2867V20.2678C158.261 20.3659 158.163 20.4641 157.967 20.5622H142.857V28.2152H151.589C153.552 28.2152 155.547 29.6542 157.574 32.5323C158.032 33.7751 158.261 34.4619 158.261 34.5928V44.8949C158.261 46.6774 156.855 48.607 154.042 50.6838C153.094 51.2725 152.243 51.5668 151.491 51.5668H141.876C139.962 51.5668 138 50.1278 135.989 47.2497C135.4 46.3503 135.106 45.4673 135.106 44.6006V44.2081C135.106 44.11 135.204 44.0119 135.4 43.9138H150.706V35.8683C149.823 35.9337 149.169 35.9664 148.744 35.9664H148.548C146.945 35.9664 144.656 35.9991 141.679 36.0645C139.979 36.0645 138.016 34.5273 135.793 31.453C135.335 30.4392 135.106 29.6215 135.106 29.0001V19.8754C135.106 17.1118 136.872 14.8551 140.404 13.1054C141.107 12.9091 141.63 12.811 141.974 12.811Z" fill="black"/>
<path d="M169.152 12.811H178.473C180.582 12.811 182.643 14.25 184.654 17.1281C185.047 17.7005 185.243 18.3219 185.243 18.9923V20.2678C185.243 20.3659 185.145 20.4641 184.949 20.5622H177.59V51.2725C177.59 51.3706 177.492 51.4687 177.296 51.5668H170.133C170.035 51.5668 169.937 51.4687 169.839 51.2725V20.5622H162.676C162.284 20.5622 162.088 20.3659 162.088 19.9735V19.7772C162.088 17.4061 163.625 15.2803 166.699 13.3997C167.533 13.0072 168.351 12.811 169.152 12.811Z" fill="black"/>
<path d="M195.938 12.811H205.553C207.662 12.811 209.69 14.25 211.636 17.1281C212.029 17.7659 212.225 18.3873 212.225 18.9923V44.8949C212.225 46.8245 210.622 48.885 207.417 51.0762C206.698 51.4033 206.076 51.5668 205.553 51.5668H195.447C193.321 51.5668 191.293 49.8988 189.364 46.5629C189.168 46.1377 189.07 45.6799 189.07 45.1893V19.4829C189.07 17.2426 190.639 15.1494 193.779 13.2035C194.728 12.9418 195.447 12.811 195.938 12.811ZM196.919 20.7584V43.8157H204.474V20.7584H196.919Z" fill="black"/>
<path d="M133.938 8.36439H129.327V0.618131H130.278V7.66286H133.938V8.36439Z" fill="black"/>
<path d="M138.922 4.84693C138.922 4.37924 138.824 3.99169 138.628 3.68426C138.412 3.35066 138.062 3.18223 137.578 3.17896C136.62 3.17896 136.089 3.79218 135.984 5.01863H138.922V4.84693ZM135.964 5.60242C135.977 6.7144 136.321 7.40449 136.994 7.67267C137.191 7.75116 137.418 7.79041 137.676 7.79041C138.229 7.79041 138.729 7.58273 139.178 7.16737L139.482 7.87871C139.24 8.04878 138.942 8.18941 138.589 8.30061C138.239 8.40854 137.881 8.4625 137.514 8.4625C137.151 8.4625 136.803 8.38728 136.47 8.23684C136.133 8.08312 135.863 7.87217 135.66 7.60399C135.248 7.06435 135.044 6.37263 135.047 5.52884C135.05 4.70793 135.255 4.01294 135.66 3.44387C135.863 3.16261 136.128 2.94021 136.455 2.77668C136.782 2.60989 137.14 2.52649 137.529 2.52649C137.922 2.52649 138.259 2.59353 138.54 2.72762C138.824 2.85845 139.053 3.03996 139.227 3.27217C139.573 3.73658 139.747 4.32855 139.747 5.04807C139.747 5.19524 139.729 5.38003 139.693 5.60242H135.964Z" fill="black"/>
<path d="M144.289 8.16816C143.917 8.34476 143.516 8.43307 143.087 8.43307C142.659 8.43307 142.314 8.29244 142.052 8.01117C141.791 7.72663 141.66 7.35379 141.66 6.89265V3.13971H140.762V2.62951H141.797V0.858515L142.592 0.632848V2.62951H144.226V3.13971H142.592V6.90246C142.592 7.14448 142.649 7.34725 142.764 7.51078C142.881 7.67104 143.061 7.75116 143.303 7.75116C143.545 7.75116 143.815 7.67921 144.113 7.53531L144.289 8.16816Z" fill="black"/>
<path d="M145.398 1.55023V0H146.889V1.31966C146.889 2.13402 146.484 2.65731 145.673 2.88952L145.403 2.39403C145.638 2.31227 145.812 2.21415 145.923 2.09968C146.037 1.98194 146.095 1.79879 146.095 1.55023H145.398Z" fill="black"/>
<path d="M148.126 7.87381L148.44 7.16247C148.649 7.34235 148.902 7.49279 149.2 7.6138C149.501 7.73154 149.754 7.79041 149.96 7.79041C150.167 7.79041 150.338 7.77569 150.476 7.74626C150.613 7.71355 150.747 7.66449 150.878 7.59908C151.166 7.45191 151.311 7.19354 151.314 6.82397C151.314 6.44131 151.1 6.16168 150.672 5.98508C150.482 5.90658 150.271 5.83627 150.039 5.77413C149.81 5.70872 149.579 5.63513 149.347 5.55336C149.118 5.4716 148.909 5.37349 148.719 5.25902C148.53 5.14128 148.374 4.97612 148.253 4.76353C148.136 4.54768 148.077 4.30402 148.077 4.03257C148.077 3.75784 148.136 3.524 148.253 3.33104C148.371 3.13481 148.526 2.98109 148.719 2.86989C149.109 2.64096 149.543 2.52649 150.024 2.52649C150.296 2.52649 150.628 2.58699 151.02 2.708C151.416 2.82901 151.709 2.96964 151.898 3.1299L151.594 3.83143C151.117 3.44551 150.611 3.25255 150.078 3.25255C149.267 3.25255 148.862 3.51746 148.862 4.04728C148.858 4.32855 149.076 4.54931 149.514 4.70957C149.71 4.78152 149.924 4.85347 150.157 4.92542C150.392 4.9941 150.626 5.0775 150.858 5.17562C151.094 5.27373 151.308 5.38984 151.501 5.52393C151.697 5.65475 151.856 5.83463 151.977 6.06357C152.098 6.28923 152.158 6.54924 152.158 6.84359C152.158 7.13467 152.096 7.38813 151.972 7.60399C151.844 7.81984 151.676 7.98828 151.467 8.10929C151.054 8.34476 150.569 8.4625 150.01 8.4625C149.728 8.4625 149.393 8.40527 149.004 8.2908C148.618 8.17306 148.325 8.03406 148.126 7.87381Z" fill="black"/>
<path d="M155.44 8.01117L155.538 7.2753C155.911 7.47153 156.243 7.61217 156.534 7.6972C156.825 7.77896 157.123 7.81984 157.427 7.81984C157.731 7.81984 157.975 7.8084 158.158 7.7855C158.344 7.75934 158.528 7.71355 158.708 7.64814C158.887 7.58273 159.038 7.49443 159.159 7.38323C159.43 7.13794 159.566 6.78472 159.566 6.32358C159.566 5.8657 159.378 5.50921 159.002 5.25411C158.698 5.04807 158.343 4.88291 157.937 4.75863C157.535 4.63107 157.21 4.52642 156.961 4.44465C156.716 4.36289 156.482 4.26314 156.26 4.1454C156.037 4.0342 155.839 3.90338 155.666 3.75294C155.29 3.42915 155.102 2.97618 155.102 2.39403C155.102 2.06698 155.172 1.77753 155.313 1.5257C155.457 1.2706 155.646 1.06783 155.882 0.917384C156.356 0.616496 156.912 0.466051 157.55 0.466051C158.436 0.466051 159.242 0.672095 159.968 1.08418L159.821 1.80533C159.54 1.62545 159.223 1.48155 158.869 1.37362C158.516 1.2657 158.207 1.21173 157.942 1.21173C157.681 1.21173 157.471 1.21991 157.314 1.23626C157.157 1.24934 156.992 1.28205 156.819 1.33438C156.649 1.38344 156.506 1.45048 156.392 1.53552C156.13 1.73502 156 2.03591 156 2.43818C156 2.83065 156.188 3.13154 156.564 3.34085C156.825 3.48802 157.169 3.62212 157.594 3.74312C158.022 3.86086 158.359 3.96062 158.604 4.04238C158.853 4.12087 159.089 4.22226 159.311 4.34654C159.533 4.46755 159.731 4.60982 159.905 4.77334C160.281 5.12656 160.469 5.62695 160.469 6.27452C160.469 7.19681 160.088 7.84928 159.326 8.23193C158.881 8.45433 158.341 8.56553 157.707 8.56553C157.324 8.56553 156.922 8.5181 156.5 8.42326C156.078 8.32841 155.725 8.19105 155.44 8.01117Z" fill="black"/>
<path d="M164.472 8.16816C164.099 8.34476 163.698 8.43307 163.27 8.43307C162.841 8.43307 162.496 8.29244 162.235 8.01117C161.973 7.72663 161.842 7.35379 161.842 6.89265V3.13971H160.945V2.62951H161.98V0.858515L162.774 0.632848V2.62951H164.408V3.13971H162.774V6.90246C162.774 7.14448 162.832 7.34725 162.946 7.51078C163.064 7.67104 163.244 7.75116 163.486 7.75116C163.728 7.75116 163.998 7.67921 164.295 7.53531L164.472 8.16816Z" fill="black"/>
<path d="M167.95 7.14284L169.427 2.62951H170.383L168.239 8.5459C168.184 8.69635 168.14 8.81572 168.107 8.90403C168.074 8.9956 168.029 9.10843 167.97 9.24253C167.911 9.37989 167.858 9.48945 167.813 9.57121C167.767 9.65298 167.708 9.74782 167.636 9.85575C167.567 9.96368 167.497 10.0503 167.425 10.1158C167.356 10.1812 167.275 10.2482 167.18 10.3169C167.085 10.3888 166.985 10.4444 166.881 10.4837C166.645 10.572 166.388 10.6161 166.11 10.6161L165.86 10.0029C166.279 9.92443 166.607 9.79034 166.846 9.60065C167.098 9.40115 167.325 8.95145 167.528 8.25155L165.316 2.62951H166.208L167.95 7.14284Z" fill="black"/>
<path d="M171.428 8.36439V0.618131L172.36 0.446428V8.36439H171.428Z" fill="black"/>
<path d="M177.404 4.84693C177.404 4.37924 177.305 3.99169 177.109 3.68426C176.893 3.35066 176.543 3.18223 176.059 3.17896C175.101 3.17896 174.57 3.79218 174.465 5.01863H177.404V4.84693ZM174.445 5.60242C174.458 6.7144 174.802 7.40449 175.476 7.67267C175.672 7.75116 175.899 7.79041 176.157 7.79041C176.71 7.79041 177.211 7.58273 177.659 7.16737L177.963 7.87871C177.721 8.04878 177.423 8.18941 177.07 8.30061C176.72 8.40854 176.362 8.4625 175.996 8.4625C175.633 8.4625 175.284 8.38728 174.951 8.23684C174.614 8.08312 174.344 7.87217 174.141 7.60399C173.729 7.06435 173.525 6.37263 173.528 5.52884C173.531 4.70793 173.736 4.01294 174.141 3.44387C174.344 3.16261 174.609 2.94021 174.936 2.77668C175.263 2.60989 175.621 2.52649 176.01 2.52649C176.403 2.52649 176.74 2.59353 177.021 2.72762C177.305 2.85845 177.534 3.03996 177.708 3.27217C178.054 3.73658 178.228 4.32855 178.228 5.04807C178.228 5.19524 178.21 5.38003 178.174 5.60242H174.445Z" fill="black"/>
<path d="M186.931 1.56986C186.293 1.33111 185.745 1.21173 185.287 1.21173C184.833 1.21173 184.461 1.27551 184.174 1.40306C183.889 1.53061 183.662 1.69577 183.492 1.89854C183.325 2.10132 183.189 2.35315 183.084 2.65404C182.983 2.95166 182.914 3.24764 182.878 3.54199C182.846 3.83306 182.829 4.15848 182.829 4.51824C182.829 4.878 182.847 5.20669 182.883 5.50431C182.919 5.79865 182.99 6.09464 183.094 6.39226C183.199 6.68988 183.335 6.94007 183.501 7.14284C183.671 7.34235 183.899 7.50587 184.183 7.63342C184.468 7.7577 184.8 7.81984 185.179 7.81984C185.546 7.82311 186.046 7.69393 186.68 7.43229C186.87 7.35379 186.981 7.30801 187.014 7.29492L187.289 7.97683C186.71 8.21231 186.278 8.36929 185.994 8.44779C185.709 8.52628 185.366 8.56553 184.963 8.56553C184.561 8.56553 184.172 8.49357 183.796 8.34967C183.42 8.2025 183.112 8.00463 182.873 7.75607C182.631 7.51405 182.432 7.21643 182.275 6.86321C181.987 6.21892 181.843 5.43072 181.843 4.49862C181.843 2.43164 182.524 1.15613 183.884 0.672095C184.263 0.534732 184.695 0.466051 185.179 0.466051C185.546 0.466051 185.838 0.49385 186.057 0.54945C186.276 0.605049 186.417 0.64266 186.479 0.662283C186.545 0.678636 186.656 0.711341 186.813 0.760399C186.97 0.806186 187.083 0.838892 187.151 0.858515L186.931 1.56986Z" fill="black"/>
<path d="M190.831 2.52649C191.017 2.52649 191.181 2.54611 191.321 2.58536V3.33104C191.256 3.31796 191.125 3.31141 190.929 3.31141C190.733 3.31141 190.463 3.3801 190.119 3.51746C189.779 3.65155 189.518 3.80527 189.334 3.9786V8.36439H188.402V2.62951H189.104L189.251 3.57142C189.787 2.8748 190.314 2.52649 190.831 2.52649Z" fill="black"/>
<path d="M196.026 4.84693C196.026 4.37924 195.928 3.99169 195.732 3.68426C195.516 3.35066 195.166 3.18223 194.682 3.17896C193.723 3.17896 193.192 3.79218 193.087 5.01863H196.026V4.84693ZM193.068 5.60242C193.081 6.7144 193.424 7.40449 194.098 7.67267C194.294 7.75116 194.521 7.79041 194.78 7.79041C195.333 7.79041 195.833 7.58273 196.281 7.16737L196.585 7.87871C196.343 8.04878 196.046 8.18941 195.692 8.30061C195.342 8.40854 194.984 8.4625 194.618 8.4625C194.255 8.4625 193.907 8.38728 193.573 8.23684C193.236 8.08312 192.966 7.87217 192.764 7.60399C192.351 7.06435 192.147 6.37263 192.15 5.52884C192.154 4.70793 192.358 4.01294 192.764 3.44387C192.966 3.16261 193.231 2.94021 193.558 2.77668C193.885 2.60989 194.243 2.52649 194.633 2.52649C195.025 2.52649 195.362 2.59353 195.643 2.72762C195.928 2.85845 196.157 3.03996 196.33 3.27217C196.677 3.73658 196.85 4.32855 196.85 5.04807C196.85 5.19524 196.832 5.38003 196.796 5.60242H193.068Z" fill="black"/>
<path d="M200.088 7.79041C200.647 7.79041 201.197 7.53858 201.736 7.03492V5.57299C201.308 5.50431 200.94 5.46997 200.632 5.46997C200.325 5.46997 200.099 5.47814 199.955 5.4945C199.815 5.51085 199.673 5.54355 199.529 5.59261C199.388 5.64167 199.272 5.70708 199.18 5.78884C198.974 5.97199 198.871 6.26144 198.871 6.65717C198.871 7.04963 198.969 7.33744 199.166 7.52059C199.362 7.70047 199.669 7.79041 200.088 7.79041ZM201.736 5.10203V4.86655C201.733 4.15358 201.617 3.69897 201.388 3.50274C201.172 3.31959 200.883 3.22802 200.52 3.22802C199.83 3.22802 199.197 3.41117 198.621 3.77747L198.292 3.17896C198.669 2.96637 199.017 2.80448 199.337 2.69328C199.661 2.58209 200.024 2.52649 200.426 2.52649C200.832 2.52649 201.184 2.57227 201.481 2.66385C201.779 2.75215 202.016 2.90096 202.193 3.11028C202.369 3.31959 202.492 3.57306 202.56 3.87068C202.632 4.16829 202.668 4.54441 202.668 4.99901V8.36439H201.982L201.844 7.49116C201.37 8.13872 200.708 8.4625 199.857 8.4625C199.256 8.4625 198.785 8.31369 198.444 8.01608C198.104 7.71519 197.934 7.27039 197.934 6.6817C197.934 6.06357 198.153 5.59915 198.592 5.28845C198.997 5.00064 199.504 4.85674 200.112 4.85674C200.338 4.85674 200.618 4.88127 200.951 4.93033C201.285 4.97612 201.547 5.03335 201.736 5.10203Z" fill="black"/>
<path d="M207.25 8.16816C206.878 8.34476 206.477 8.43307 206.048 8.43307C205.62 8.43307 205.275 8.29244 205.013 8.01117C204.752 7.72663 204.621 7.35379 204.621 6.89265V3.13971H203.723V2.62951H204.758V0.858515L205.553 0.632848V2.62951H207.187V3.13971H205.553V6.90246C205.553 7.14448 205.61 7.34725 205.725 7.51078C205.842 7.67104 206.022 7.75116 206.264 7.75116C206.506 7.75116 206.776 7.67921 207.074 7.53531L207.25 8.16816Z" fill="black"/>
<path d="M212.176 4.84693C212.176 4.37924 212.078 3.99169 211.881 3.68426C211.666 3.35066 211.316 3.18223 210.832 3.17896C209.873 3.17896 209.342 3.79218 209.237 5.01863H212.176V4.84693ZM209.218 5.60242C209.231 6.7144 209.574 7.40449 210.248 7.67267C210.444 7.75116 210.671 7.79041 210.93 7.79041C211.482 7.79041 211.983 7.58273 212.431 7.16737L212.735 7.87871C212.493 8.04878 212.195 8.18941 211.842 8.30061C211.492 8.40854 211.134 8.4625 210.768 8.4625C210.405 8.4625 210.057 8.38728 209.723 8.23684C209.386 8.08312 209.116 7.87217 208.913 7.60399C208.501 7.06435 208.297 6.37263 208.3 5.52884C208.304 4.70793 208.508 4.01294 208.913 3.44387C209.116 3.16261 209.381 2.94021 209.708 2.77668C210.035 2.60989 210.393 2.52649 210.783 2.52649C211.175 2.52649 211.512 2.59353 211.793 2.72762C212.078 2.85845 212.307 3.03996 212.48 3.27217C212.827 3.73658 213 4.32855 213 5.04807C213 5.19524 212.982 5.38003 212.946 5.60242H209.218Z" fill="black"/>
</g>
<defs>
<filter id="filter0_d_236_12" x="-4.01883" y="0" width="221.038" height="59.6045" filterUnits="userSpaceOnUse" color-interpolation-filters="sRGB">
<feFlood flood-opacity="0" result="BackgroundImageFix"/>
<feColorMatrix in="SourceAlpha" type="matrix" values="0 0 0 0 0 0 0 0 0 0 0 0 0 0 0 0 0 0 127 0" result="hardAlpha"/>
<feOffset dy="4"/>
<feGaussianBlur stdDeviation="2"/>
<feComposite in2="hardAlpha" operator="out"/>
<feColorMatrix type="matrix" values="0 0 0 0 0 0 0 0 0 0 0 0 0 0 0 0 0 0 0.25 0"/>
<feBlend mode="normal" in2="BackgroundImageFix" result="effect1_dropShadow_236_12"/>
<feBlend mode="normal" in="SourceGraphic" in2="effect1_dropShadow_236_12" result="shape"/>
</filter>
</defs>
</svg>
