<svg width="22" height="22" viewBox="0 0 22 22" fill="none" xmlns="http://www.w3.org/2000/svg">
<path fill-rule="evenodd" clip-rule="evenodd" d="M15.2857 1H6.71429C3.55837 1 1 3.55837 1 6.71429V15.2857C1 18.4416 3.55837 21 6.71429 21H15.2857C18.4416 21 21 18.4416 21 15.2857V6.71429C21 3.55837 18.4416 1 15.2857 1Z" stroke="black" stroke-opacity="0.5" stroke-width="2" stroke-linecap="round" stroke-linejoin="round"/>
<path fill-rule="evenodd" clip-rule="evenodd" d="M11.2381 15.5238C8.87111 15.5238 6.95239 13.6051 6.95239 11.2381C6.95239 8.87111 8.87111 6.95239 11.2381 6.95239C13.6051 6.95239 15.5238 8.87111 15.5238 11.2381C15.5238 12.3747 15.0722 13.4648 14.2685 14.2685C13.4648 15.0722 12.3747 15.5238 11.2381 15.5238Z" stroke="black" stroke-opacity="0.5" stroke-width="2" stroke-linecap="round" stroke-linejoin="round"/>
<path d="M16.5953 5.76192C16.2008 5.76192 15.881 6.08172 15.881 6.47621C15.881 6.87069 16.2008 7.19049 16.5953 7.19049C16.9898 7.19049 17.3096 6.87069 17.3096 6.47621C17.3096 6.08172 16.9898 5.76192 16.5953 5.76192Z" stroke="black" stroke-opacity="0.5" stroke-width="2" stroke-linecap="round"/>
</svg>
