<svg width="17" height="17" viewBox="0 0 17 17" fill="none" xmlns="http://www.w3.org/2000/svg">
<path d="M4.20707 4.20707H7.64141M4.20707 7.64141H7.64141M11.0758 16.2273H0.772727V1.63131C0.772727 1.4036 0.863185 1.18522 1.0242 1.0242C1.18522 0.863185 1.4036 0.772727 1.63131 0.772727H10.2172C10.4449 0.772727 10.6633 0.863185 10.8243 1.0242C10.9853 1.18522 11.0758 1.4036 11.0758 1.63131V16.2273ZM11.0758 16.2273H16.2273V4.20707C16.2273 3.97936 16.1368 3.76097 15.9758 3.59996C15.8148 3.43894 15.5964 3.34848 15.3687 3.34848H11.0758V16.2273ZM7.64141 16.2273V11.0758H4.20707V16.2273H7.64141Z" stroke="black" stroke-width="1.5" stroke-linecap="round" stroke-linejoin="round"/>
</svg>
