<svg width="20" height="20" viewBox="0 0 20 20" fill="none" xmlns="http://www.w3.org/2000/svg">
<path fill-rule="evenodd" clip-rule="evenodd" d="M3.05759 0.864338C2.15747 1.72869 1.92038 3.19174 1.44621 6.11784L0.635948 11.1179C-0.0308282 15.2325 -0.364222 17.2897 0.607784 18.6449C1.57978 20 3.38884 20 7.00697 20H12.993C16.6112 20 18.4202 20 19.3922 18.6449C20.3642 17.2897 20.0309 15.2325 19.3641 11.1179L18.5538 6.11784C18.0796 3.19174 17.8425 1.72869 16.9424 0.864338C16.0423 1.49012e-07 14.7558 0 12.1827 0H7.81723C5.24421 0 3.9577 1.49012e-07 3.05759 0.864338ZM7.70777 4.68759C8.0419 5.78121 8.94334 6.5625 10.0005 6.5625C11.0576 6.5625 11.959 5.78121 12.293 4.68759C12.4422 4.19941 12.9052 3.94354 13.327 4.11609C13.7489 4.28864 13.9701 4.82425 13.821 5.31241C13.2652 7.13176 11.7656 8.4375 10.0005 8.4375C8.23517 8.4375 6.73565 7.13176 6.17989 5.31241C6.03076 4.82425 6.25189 4.28864 6.67381 4.11609C7.09572 3.94354 7.55864 4.19941 7.70777 4.68759Z" fill="black"/>
</svg>
