<svg width="15" height="16" viewBox="0 0 15 16" fill="none" xmlns="http://www.w3.org/2000/svg">
<path d="M15 13.8638L11.1498 9.86264C11.8272 8.81975 12.1886 7.59004 12.1875 6.33187C12.1875 2.84077 9.45477 0 6.09409 0C2.73409 0 0 2.84077 0 6.33187C0 9.82368 2.73409 12.6637 6.09409 12.6637C7.30507 12.6652 8.48869 12.2897 9.49227 11.5855L13.3418 15.5853L15 13.8638ZM6.09409 10.7149C4.97545 10.7137 3.90294 10.2515 3.11194 9.42967C2.32094 8.60781 1.87608 7.49345 1.875 6.33116C1.87626 5.16893 2.32118 4.05468 3.11214 3.23286C3.9031 2.41104 4.97551 1.94876 6.09409 1.94745C7.21268 1.94876 8.28508 2.41104 9.07604 3.23286C9.867 4.05468 10.3119 5.16893 10.3132 6.33116C10.3119 7.49339 9.867 8.60764 9.07604 9.42946C8.28508 10.2513 7.21268 10.7136 6.09409 10.7149Z" fill="#B3B3B3"/>
</svg>
