<svg width="224" height="54" viewBox="0 0 224 54" fill="none" xmlns="http://www.w3.org/2000/svg">
<path d="M7.42918 13.4155H17.2316C19.45 13.4155 21.6168 14.9224 23.7321 17.9363C24.1448 18.5356 24.3512 19.1864 24.3512 19.8885V21.2242C24.3512 21.3269 24.248 21.4296 24.0416 21.5324H16.3029V53.6918C16.3029 53.7945 16.1997 53.8973 15.9934 54H8.46101C8.35782 54 8.25464 53.8973 8.15146 53.6918V21.5324H0.619098C0.206366 21.5324 0 21.3269 0 20.9159V20.7104C0 18.2274 1.61653 16.0013 4.8496 14.032C5.72666 13.621 6.58652 13.4155 7.42918 13.4155Z" fill="white"/>
<path d="M35.8561 13.4155H36.2688C36.372 13.4155 36.4752 13.5182 36.5784 13.7237V29.752H44.833V13.7237C44.833 13.621 44.9362 13.5182 45.1426 13.4155H45.3489C48.0489 13.4155 50.4565 15.2649 52.5717 18.9638C52.7093 19.4432 52.7781 19.8542 52.7781 20.1967V47.4243C52.7781 49.0168 51.2304 50.969 48.1349 53.2808C47.2406 53.7603 46.4496 54 45.7617 54H45.1426C45.0394 54 44.9362 53.8973 44.833 53.6918V37.7662H36.5784V53.6918C36.5784 53.7945 36.4752 53.8973 36.2688 54H35.4434C33.5001 54 31.4708 52.4931 29.3556 49.4792C28.7365 48.5031 28.4269 47.4757 28.4269 46.3968V21.1214C28.4269 18.0048 30.353 15.5047 34.2052 13.621C34.9962 13.484 35.5465 13.4155 35.8561 13.4155Z" fill="white"/>
<path d="M63.6639 13.4155H73.5695C75.1688 13.4155 77.1293 14.3402 79.4509 16.1896C80.6203 17.5253 81.205 19.409 81.205 21.8406V25.0257C81.205 29.0157 79.3821 31.6871 75.7363 33.0399C74.8421 33.4338 74.395 33.6735 74.395 33.7591V33.8619C76.7854 33.8619 78.9866 35.8483 80.9987 39.8211C81.1362 40.4547 81.205 40.8314 81.205 40.9513L81.1018 44.2392C81.2394 45.4721 81.3082 46.4653 81.3082 47.2188C81.3082 49.1025 79.898 51.0546 77.0777 53.0753C75.9771 53.6918 75.014 54 74.1886 54H73.4663C73.3631 54 73.2599 53.8973 73.1568 53.6918V37.7662H64.9021V53.6918C64.9021 53.7945 64.7989 53.8973 64.5926 54H63.6639C61.6175 54 59.5882 52.5273 57.5761 49.5819C57.0258 48.7942 56.7507 47.8695 56.7507 46.8078V20.7104C56.7507 17.9363 58.5048 15.6074 62.013 13.7237C62.7525 13.5182 63.3028 13.4155 63.6639 13.4155ZM65.1085 21.6351V29.5465H72.9504V21.6351H65.1085Z" fill="white"/>
<path d="M85.5903 13.4155H109.322C109.426 13.4155 109.529 13.5182 109.632 13.7237V21.1214C109.632 21.2242 109.529 21.3269 109.322 21.4296H101.584V45.9858H109.322C109.426 45.9858 109.529 46.0886 109.632 46.2941V53.6918C109.632 53.7945 109.529 53.8973 109.322 54H85.5903C85.4871 54 85.3839 53.8973 85.2808 53.6918V46.2941C85.2808 46.1913 85.3839 46.0886 85.5903 45.9858H93.5354V21.4296H85.5903C85.4871 21.4296 85.3839 21.3269 85.2808 21.1214V13.7237C85.2808 13.621 85.3839 13.5182 85.5903 13.4155Z" fill="white"/>
<path d="M121.137 13.4155H137.749C137.852 13.4155 137.956 13.5182 138.059 13.7237V21.1214C138.059 21.2242 137.956 21.3269 137.749 21.4296H121.859V29.6493H129.701C129.804 29.6493 129.907 29.752 130.011 29.9575V37.458C130.011 37.5607 129.907 37.6635 129.701 37.7662H121.859V53.6918C121.859 53.7945 121.756 53.8973 121.55 54H114.017C113.914 54 113.811 53.8973 113.708 53.6918V21.9434C113.708 17.8678 115.703 15.0937 119.692 13.621C120.208 13.484 120.69 13.4155 121.137 13.4155Z" fill="white"/>
<path d="M149.306 13.4155H159.418C161.825 13.4155 164.061 15.1964 166.125 18.7583C166.331 19.2035 166.434 19.683 166.434 20.1967V21.2242C166.434 21.3269 166.331 21.4296 166.125 21.5324H150.234V29.5465H159.418C161.481 29.5465 163.579 31.0535 165.712 34.0674C166.193 35.3688 166.434 36.088 166.434 36.225V47.0133C166.434 48.8798 164.955 50.9005 161.997 53.0753C161 53.6918 160.106 54 159.315 54H149.203C147.191 54 145.127 52.4931 143.012 49.4792C142.393 48.5374 142.083 47.6126 142.083 46.7051V46.2941C142.083 46.1913 142.186 46.0886 142.393 45.9858H158.489V37.5607C157.56 37.6292 156.873 37.6635 156.425 37.6635H156.219C154.534 37.6635 152.126 37.6977 148.996 37.7662C147.208 37.7662 145.144 36.1565 142.805 32.9372C142.324 31.8755 142.083 31.0192 142.083 30.3685V20.8132C142.083 17.9192 143.94 15.556 147.655 13.7237C148.394 13.5182 148.945 13.4155 149.306 13.4155Z" fill="white"/>
<path d="M177.888 13.4155H187.69C189.908 13.4155 192.075 14.9224 194.19 17.9363C194.603 18.5356 194.81 19.1864 194.81 19.8885V21.2242C194.81 21.3269 194.706 21.4296 194.5 21.5324H186.761V53.6918C186.761 53.7945 186.658 53.8973 186.452 54H178.919C178.816 54 178.713 53.8973 178.61 53.6918V21.5324H171.077C170.665 21.5324 170.458 21.3269 170.458 20.9159V20.7104C170.458 18.2274 172.075 16.0013 175.308 14.032C176.185 13.621 177.045 13.4155 177.888 13.4155Z" fill="white"/>
<path d="M206.056 13.4155H216.168C218.387 13.4155 220.519 14.9224 222.566 17.9363C222.978 18.6041 223.185 19.2549 223.185 19.8885V47.0133C223.185 49.034 221.5 51.1916 218.129 53.4863C217.372 53.8288 216.719 54 216.168 54H205.541C203.305 54 201.172 52.2533 199.143 48.76C198.937 48.3147 198.834 47.8353 198.834 47.3215V20.4022C198.834 18.0562 200.485 15.8643 203.786 13.8265C204.784 13.5525 205.541 13.4155 206.056 13.4155ZM207.088 21.7379V45.8831H215.033V21.7379H207.088Z" fill="white"/>
<path d="M140.855 8.75906H136.006V0.647297H137.006V8.02443H140.855V8.75906Z" fill="white"/>
<path d="M146.097 5.07563C146.097 4.58588 145.994 4.18003 145.787 3.8581C145.56 3.50876 145.192 3.33238 144.683 3.32896C143.675 3.32896 143.117 3.97112 143.006 5.25544H146.097V5.07563ZM142.986 5.86677C143 7.03122 143.361 7.75387 144.069 8.03471C144.276 8.1169 144.515 8.158 144.786 8.158C145.368 8.158 145.894 7.94052 146.365 7.50557L146.685 8.25047C146.43 8.42856 146.117 8.57583 145.746 8.69228C145.378 8.8053 145.001 8.86181 144.616 8.86181C144.234 8.86181 143.868 8.78304 143.517 8.62549C143.163 8.46452 142.879 8.24362 142.666 7.96278C142.233 7.39768 142.018 6.67333 142.021 5.78971C142.025 4.93008 142.24 4.20229 142.666 3.60637C142.879 3.31183 143.158 3.07894 143.502 2.9077C143.846 2.73303 144.222 2.6457 144.632 2.6457C145.044 2.6457 145.399 2.71591 145.694 2.85633C145.994 2.99332 146.234 3.1834 146.417 3.42657C146.781 3.91289 146.964 4.53279 146.964 5.28626C146.964 5.44038 146.945 5.63388 146.907 5.86677H142.986Z" fill="white"/>
<path d="M151.741 8.55357C151.349 8.73851 150.928 8.83098 150.477 8.83098C150.026 8.83098 149.664 8.68371 149.388 8.38918C149.113 8.09122 148.976 7.70078 148.976 7.21788V3.28786H148.032V2.75358H149.12V0.899024L149.956 0.662709V2.75358H151.674V3.28786H149.956V7.22815C149.956 7.48159 150.016 7.69393 150.136 7.86517C150.26 8.03299 150.449 8.1169 150.704 8.1169C150.958 8.1169 151.242 8.04155 151.555 7.89086L151.741 8.55357Z" fill="white"/>
<path d="M152.907 1.62338V0H154.475V1.38193C154.475 2.23472 154.049 2.78269 153.196 3.02586L152.912 2.50699C153.16 2.42137 153.342 2.31863 153.459 2.19876C153.579 2.07546 153.639 1.88367 153.639 1.62338H152.907Z" fill="white"/>
<path d="M155.775 8.24533L156.106 7.50043C156.326 7.6888 156.592 7.84634 156.905 7.97306C157.222 8.09635 157.488 8.158 157.705 8.158C157.922 8.158 158.102 8.14259 158.247 8.11176C158.391 8.07752 158.532 8.02614 158.67 7.95765C158.972 7.80353 159.125 7.53296 159.129 7.14596C159.129 6.74525 158.904 6.45242 158.453 6.26748C158.253 6.18528 158.032 6.11165 157.787 6.04658C157.547 5.97808 157.304 5.90102 157.06 5.8154C156.819 5.72978 156.599 5.62703 156.4 5.50716C156.2 5.38387 156.037 5.21091 155.91 4.9883C155.786 4.76226 155.724 4.50711 155.724 4.22284C155.724 3.93516 155.786 3.69028 155.91 3.48821C156.033 3.28272 156.197 3.12175 156.4 3.00531C156.809 2.76557 157.266 2.6457 157.772 2.6457C158.057 2.6457 158.407 2.70906 158.819 2.83578C159.235 2.9625 159.543 3.10977 159.743 3.27758L159.423 4.01222C158.921 3.60808 158.389 3.40602 157.829 3.40602C156.976 3.40602 156.549 3.68343 156.549 4.23826C156.546 4.53279 156.775 4.76397 157.235 4.93179C157.442 5.00713 157.667 5.08248 157.911 5.15783C158.159 5.22975 158.405 5.31708 158.649 5.41983C158.897 5.52258 159.122 5.64416 159.325 5.78458C159.531 5.92157 159.698 6.10994 159.825 6.34968C159.953 6.58599 160.016 6.85827 160.016 7.1665C160.016 7.47132 159.951 7.73674 159.82 7.96278C159.686 8.18882 159.509 8.3652 159.289 8.49192C158.855 8.73851 158.345 8.86181 157.757 8.86181C157.461 8.86181 157.108 8.80187 156.699 8.682C156.293 8.55871 155.985 8.41315 155.775 8.24533Z" fill="white"/>
<path d="M163.468 8.38918L163.571 7.61859C163.963 7.82408 164.312 7.97135 164.618 8.06039C164.924 8.14601 165.237 8.18882 165.557 8.18882C165.877 8.18882 166.133 8.17684 166.326 8.15286C166.522 8.12546 166.715 8.07752 166.904 8.00902C167.093 7.94052 167.251 7.84805 167.378 7.73161C167.664 7.47474 167.807 7.10486 167.807 6.62195C167.807 6.14247 167.609 5.76917 167.213 5.50203C166.893 5.28626 166.52 5.11331 166.094 4.98316C165.671 4.84959 165.328 4.74 165.067 4.65438C164.809 4.56875 164.563 4.4643 164.329 4.341C164.095 4.22456 163.887 4.08756 163.705 3.93002C163.309 3.59096 163.112 3.11662 163.112 2.50699C163.112 2.16451 163.186 1.86141 163.334 1.59769C163.485 1.33056 163.684 1.11821 163.932 0.960671C164.431 0.645585 165.015 0.488042 165.686 0.488042C166.618 0.488042 167.466 0.703807 168.23 1.13534L168.075 1.89052C167.779 1.70215 167.445 1.55146 167.074 1.43844C166.702 1.32542 166.377 1.26891 166.099 1.26891C165.824 1.26891 165.604 1.27747 165.438 1.29459C165.273 1.30829 165.1 1.34254 164.917 1.39734C164.739 1.44871 164.589 1.51892 164.469 1.60797C164.193 1.81688 164.056 2.13197 164.056 2.55323C164.056 2.96421 164.254 3.2793 164.649 3.49849C164.924 3.65261 165.285 3.79302 165.733 3.91974C166.183 4.04304 166.537 4.1475 166.795 4.23312C167.057 4.31531 167.304 4.42149 167.538 4.55163C167.772 4.67835 167.98 4.82733 168.163 4.99857C168.558 5.36846 168.756 5.89246 168.756 6.57058C168.756 7.53639 168.355 8.21965 167.554 8.62035C167.086 8.85324 166.518 8.96969 165.851 8.96969C165.449 8.96969 165.026 8.92003 164.582 8.82071C164.138 8.72139 163.767 8.57754 163.468 8.38918Z" fill="white"/>
<path d="M172.966 8.55357C172.574 8.73851 172.152 8.83098 171.702 8.83098C171.251 8.83098 170.888 8.68371 170.613 8.38918C170.338 8.09122 170.2 7.70078 170.2 7.21788V3.28786H169.256V2.75358H170.345V0.899024L171.181 0.662709V2.75358H172.899V3.28786H171.181V7.22815C171.181 7.48159 171.241 7.69393 171.361 7.86517C171.485 8.03299 171.674 8.1169 171.929 8.1169C172.183 8.1169 172.467 8.04155 172.78 7.89086L172.966 8.55357Z" fill="white"/>
<path d="M176.624 7.47988L178.176 2.75358H179.182L176.928 8.94914C176.869 9.10668 176.823 9.23169 176.789 9.32416C176.754 9.42006 176.706 9.53822 176.644 9.67863C176.582 9.82248 176.527 9.93721 176.479 10.0228C176.431 10.1085 176.369 10.2078 176.293 10.3208C176.221 10.4338 176.147 10.5246 176.071 10.5931C175.999 10.6616 175.913 10.7318 175.814 10.8037C175.714 10.879 175.609 10.9373 175.499 10.9784C175.251 11.0708 174.981 11.1171 174.689 11.1171L174.426 10.4749C174.866 10.3927 175.212 10.2523 175.463 10.0537C175.728 9.84474 175.967 9.37382 176.18 8.6409L173.853 2.75358H174.792L176.624 7.47988Z" fill="white"/>
<path d="M180.281 8.75906V0.647297L181.262 0.467492V8.75906H180.281Z" fill="white"/>
<path d="M186.565 5.07563C186.565 4.58588 186.462 4.18003 186.256 3.8581C186.029 3.50876 185.661 3.33238 185.152 3.32896C184.144 3.32896 183.585 3.97112 183.475 5.25544H186.565V5.07563ZM183.454 5.86677C183.468 7.03122 183.829 7.75387 184.538 8.03471C184.744 8.1169 184.983 8.158 185.255 8.158C185.836 8.158 186.362 7.94052 186.833 7.50557L187.153 8.25047C186.899 8.42856 186.586 8.57583 186.214 8.69228C185.846 8.8053 185.47 8.86181 185.085 8.86181C184.703 8.86181 184.336 8.78304 183.986 8.62549C183.631 8.46452 183.348 8.24362 183.134 7.96278C182.701 7.39768 182.486 6.67333 182.489 5.78971C182.493 4.93008 182.708 4.20229 183.134 3.60637C183.348 3.31183 183.626 3.07894 183.97 2.9077C184.314 2.73303 184.691 2.6457 185.1 2.6457C185.513 2.6457 185.867 2.71591 186.163 2.85633C186.462 2.99332 186.703 3.1834 186.885 3.42657C187.25 3.91289 187.432 4.53279 187.432 5.28626C187.432 5.44038 187.413 5.63388 187.375 5.86677H183.454Z" fill="white"/>
<path d="M196.584 1.64393C195.914 1.39392 195.337 1.26891 194.856 1.26891C194.378 1.26891 193.988 1.33569 193.685 1.46926C193.386 1.60283 193.147 1.77579 192.968 1.98813C192.792 2.20047 192.65 2.46418 192.539 2.77927C192.433 3.09093 192.361 3.40088 192.323 3.70912C192.288 4.01393 192.271 4.3547 192.271 4.73143C192.271 5.10817 192.29 5.45237 192.328 5.76403C192.366 6.07226 192.44 6.38221 192.55 6.69388C192.66 7.00554 192.803 7.26754 192.978 7.47988C193.157 7.6888 193.396 7.86004 193.695 7.99361C193.994 8.12375 194.343 8.18882 194.742 8.18882C195.128 8.19225 195.654 8.05697 196.321 7.78298C196.521 7.70078 196.638 7.65283 196.672 7.63913L196.961 8.35322C196.352 8.59981 195.898 8.7642 195.599 8.8464C195.3 8.92859 194.939 8.96969 194.515 8.96969C194.092 8.96969 193.683 8.89434 193.288 8.74365C192.892 8.58953 192.569 8.38233 192.318 8.12204C192.063 7.8686 191.853 7.55694 191.688 7.18705C191.386 6.51236 191.234 5.68697 191.234 4.71089C191.234 2.54638 191.95 1.21069 193.38 0.703807C193.779 0.559963 194.233 0.488042 194.742 0.488042C195.128 0.488042 195.436 0.517153 195.666 0.575375C195.896 0.633598 196.044 0.672984 196.11 0.693533C196.178 0.710657 196.295 0.744906 196.46 0.796278C196.626 0.844226 196.744 0.878475 196.816 0.899024L196.584 1.64393Z" fill="white"/>
<path d="M200.686 2.6457C200.882 2.6457 201.054 2.66625 201.202 2.70735V3.48821C201.133 3.47451 200.995 3.46766 200.789 3.46766C200.583 3.46766 200.299 3.53959 199.938 3.68343C199.58 3.82385 199.305 3.98482 199.112 4.16633V8.75906H198.132V2.75358H198.87L199.025 3.73994C199.589 3.01045 200.142 2.6457 200.686 2.6457Z" fill="white"/>
<path d="M206.149 5.07563C206.149 4.58588 206.046 4.18003 205.84 3.8581C205.613 3.50876 205.245 3.33238 204.736 3.32896C203.728 3.32896 203.169 3.97112 203.059 5.25544H206.149V5.07563ZM203.038 5.86677C203.052 7.03122 203.413 7.75387 204.122 8.03471C204.328 8.1169 204.567 8.158 204.839 8.158C205.42 8.158 205.946 7.94052 206.418 7.50557L206.737 8.25047C206.483 8.42856 206.17 8.57583 205.799 8.69228C205.43 8.8053 205.054 8.86181 204.669 8.86181C204.287 8.86181 203.921 8.78304 203.57 8.62549C203.215 8.46452 202.932 8.24362 202.719 7.96278C202.285 7.39768 202.07 6.67333 202.074 5.78971C202.077 4.93008 202.292 4.20229 202.719 3.60637C202.932 3.31183 203.21 3.07894 203.554 2.9077C203.898 2.73303 204.275 2.6457 204.684 2.6457C205.097 2.6457 205.451 2.71591 205.747 2.85633C206.046 2.99332 206.287 3.1834 206.469 3.42657C206.834 3.91289 207.016 4.53279 207.016 5.28626C207.016 5.44038 206.997 5.63388 206.959 5.86677H203.038Z" fill="white"/>
<path d="M210.421 8.158C211.009 8.158 211.587 7.89429 212.155 7.36686V5.83595C211.704 5.76403 211.317 5.72807 210.994 5.72807C210.67 5.72807 210.433 5.73663 210.282 5.75375C210.134 5.77088 209.984 5.80513 209.833 5.8565C209.685 5.90787 209.563 5.97637 209.467 6.06199C209.25 6.25378 209.142 6.55688 209.142 6.97129C209.142 7.38227 209.245 7.68366 209.451 7.87545C209.658 8.06382 209.981 8.158 210.421 8.158ZM212.155 5.34277V5.09618C212.151 4.34956 212.029 3.87351 211.788 3.66802C211.561 3.47623 211.257 3.38033 210.875 3.38033C210.149 3.38033 209.484 3.57212 208.879 3.95571L208.533 3.32896C208.928 3.10634 209.295 2.93681 209.632 2.82037C209.972 2.70392 210.354 2.6457 210.777 2.6457C211.204 2.6457 211.573 2.69365 211.886 2.78954C212.199 2.88201 212.449 3.03784 212.634 3.25704C212.82 3.47623 212.949 3.74165 213.021 4.05331C213.097 4.36497 213.135 4.75883 213.135 5.23489V8.75906H212.413L212.268 7.84463C211.769 8.52275 211.073 8.86181 210.179 8.86181C209.546 8.86181 209.05 8.70598 208.693 8.39431C208.335 8.07923 208.156 7.61345 208.156 6.99697C208.156 6.34968 208.387 5.86335 208.848 5.53799C209.274 5.2366 209.807 5.08591 210.447 5.08591C210.684 5.08591 210.978 5.11159 211.329 5.16297C211.68 5.21091 211.955 5.27085 212.155 5.34277Z" fill="white"/>
<path d="M217.953 8.55357C217.561 8.73851 217.14 8.83098 216.689 8.83098C216.239 8.83098 215.876 8.68371 215.601 8.38918C215.326 8.09122 215.188 7.70078 215.188 7.21788V3.28786H214.244V2.75358H215.333V0.899024L216.168 0.662709V2.75358H217.886V3.28786H216.168V7.22815C216.168 7.48159 216.229 7.69393 216.349 7.86517C216.473 8.03299 216.662 8.1169 216.916 8.1169C217.171 8.1169 217.455 8.04155 217.768 7.89086L217.953 8.55357Z" fill="white"/>
<path d="M223.133 5.07563C223.133 4.58588 223.03 4.18003 222.824 3.8581C222.597 3.50876 222.229 3.33238 221.72 3.32896C220.712 3.32896 220.153 3.97112 220.043 5.25544H223.133V5.07563ZM220.022 5.86677C220.036 7.03122 220.397 7.75387 221.106 8.03471C221.312 8.1169 221.551 8.158 221.823 8.158C222.404 8.158 222.93 7.94052 223.402 7.50557L223.721 8.25047C223.467 8.42856 223.154 8.57583 222.782 8.69228C222.414 8.8053 222.038 8.86181 221.653 8.86181C221.271 8.86181 220.905 8.78304 220.554 8.62549C220.199 8.46452 219.916 8.24362 219.702 7.96278C219.269 7.39768 219.054 6.67333 219.058 5.78971C219.061 4.93008 219.276 4.20229 219.702 3.60637C219.916 3.31183 220.194 3.07894 220.538 2.9077C220.882 2.73303 221.259 2.6457 221.668 2.6457C222.081 2.6457 222.435 2.71591 222.731 2.85633C223.03 2.99332 223.271 3.1834 223.453 3.42657C223.818 3.91289 224 4.53279 224 5.28626C224 5.44038 223.981 5.63388 223.943 5.86677H220.022Z" fill="white"/>
</svg>
