<svg width="38" height="25" viewBox="0 0 38 25" fill="none" xmlns="http://www.w3.org/2000/svg">
<path d="M0 0V2.27273H22.5625V19.3182H15.252C14.7231 17.3651 12.8862 15.9091 10.6875 15.9091C8.48877 15.9091 6.65186 17.3651 6.12305 19.3182H4.75V13.6364H2.375V21.5909H6.12305C6.65186 23.544 8.48877 25 10.6875 25C12.8862 25 14.7231 23.544 15.252 21.5909H25.123C25.6519 23.544 27.4888 25 29.6875 25C31.8862 25 33.7231 23.544 34.252 21.5909H38V12.3224L37.9258 12.1449L35.5508 5.3267L35.291 4.54545H24.9375V0H0ZM1.1875 4.54545V6.81818H11.875V4.54545H1.1875ZM24.9375 6.81818H33.584L35.625 12.642V19.3182H34.252C33.7231 17.3651 31.8862 15.9091 29.6875 15.9091C27.4888 15.9091 25.6519 17.3651 25.123 19.3182H24.9375V6.81818ZM2.375 9.09091V11.3636H9.5V9.09091H2.375ZM10.6875 18.1818C12.0142 18.1818 13.0625 19.185 13.0625 20.4545C13.0625 21.7241 12.0142 22.7273 10.6875 22.7273C9.36084 22.7273 8.3125 21.7241 8.3125 20.4545C8.3125 19.185 9.36084 18.1818 10.6875 18.1818ZM29.6875 18.1818C31.0142 18.1818 32.0625 19.185 32.0625 20.4545C32.0625 21.7241 31.0142 22.7273 29.6875 22.7273C28.3608 22.7273 27.3125 21.7241 27.3125 20.4545C27.3125 19.185 28.3608 18.1818 29.6875 18.1818Z" fill="black" fill-opacity="0.5"/>
</svg>
