<svg width="17" height="15" viewBox="0 0 17 15" fill="none" xmlns="http://www.w3.org/2000/svg">
<path d="M1.40064 14.9885C1.09981 14.9667 0.8154 14.85 0.574475 14.6491C0.48666 14.5761 0.341906 14.4165 0.275195 14.3203C0.159053 14.1538 0.0702462 13.9351 0.0295962 13.7207L0.0111837 13.62V8.74557H6.38061V9.57461C6.38061 10.4871 6.38118 10.4394 6.43868 10.5662C6.5095 10.7227 6.66431 10.8587 6.83002 10.911C6.8796 10.9271 6.95466 10.9271 8.51027 10.9271H10.138L10.2102 10.9023C10.3888 10.8395 10.5481 10.6731 10.6089 10.4846L10.6301 10.4219V8.74586H17V13.6565L16.9802 13.747C16.9334 13.9564 16.864 14.1265 16.7599 14.2861C16.6395 14.4695 16.4999 14.6138 16.3214 14.7373C16.0968 14.8931 15.8808 14.9678 15.594 14.9891C15.4492 15.0037 1.55786 15.0037 1.40432 14.9885H1.40064ZM7.28822 8.74586H9.71857V9.99271H7.28822V8.74586ZM0.00806739 5.83422C0.00806739 3.69444 0.00806747 3.84163 0.0576409 3.6409C0.132709 3.33557 0.339782 3.02222 0.601953 2.81419C0.788489 2.66641 0.97545 2.57699 1.21085 2.52287L1.31708 2.49807H4.8658V0.759165L4.88563 0.686224C4.97769 0.351573 5.2485 0.0876746 5.57172 0.016047C5.64254 5.45261e-08 5.76916 0 8.51097 0H11.3759L11.4609 0.0247997C11.83 0.129834 12.0896 0.435601 12.135 0.818247C12.135 0.866388 12.1492 1.199 12.1492 1.69703V2.49909H13.8643C15.0488 2.49909 15.6073 2.49909 15.6696 2.51368C15.9847 2.54869 16.284 2.69399 16.5214 2.92798C16.7681 3.17131 16.9089 3.42733 16.9766 3.75542L16.9965 3.85461V7.81645H0V5.84458L0.00806739 5.83422ZM10.9294 1.23751H6.07736V2.4934H10.9294V1.23751Z" fill="black"/>
</svg>
